HIERARCHY
ROOT Hips
{
	OFFSET -0.179506 -22.333345 2.821913
	CHANNELS 6 Xposition Yposition Zposition Zrotation Yrotation Xrotation 
	JOINT LeftUpLeg
	{
		OFFSET 6.951974 -9.140623 -0.681533
		CHANNELS 3 Zrotation Yrotation Xrotation
		JOINT LeftLeg
		{
			OFFSET 3.427654 -37.519855 -0.449580
			CHANNELS 3 Zrotation Yrotation Xrotation
			JOINT LeftFoot
			{
				OFFSET -1.359570 -39.796059 -4.369333
				CHANNELS 3 Zrotation Yrotation Xrotation
				JOINT LeftToe
				{
					OFFSET 2.635814 -5.579078 11.928840
					CHANNELS 3 Zrotation Yrotation Xrotation
					End Site
					{
						OFFSET 0.000000 0.000000 0.000000
					}
				}
			}
		}
	}
	JOINT RightUpLeg
	{
		OFFSET -6.767048 -9.052170 -0.431982
		CHANNELS 3 Zrotation Yrotation Xrotation
		JOINT RightLeg
		{
			OFFSET -3.829005 -38.256897 -0.885003
			CHANNELS 3 Zrotation Yrotation Xrotation
			JOINT RightFoot
			{
				OFFSET 1.577377 -39.841461 -4.231180
				CHANNELS 3 Zrotation Yrotation Xrotation
				JOINT RightToe
				{
					OFFSET -2.537174 -4.814398 12.334795
					CHANNELS 3 Zrotation Yrotation Xrotation
					End Site
					{
						OFFSET 0.000000 0.000000 0.000000
					}
				}
			}
		}
	}
	JOINT Spine
	{
		OFFSET -0.253288 10.896323 -2.669631
		CHANNELS 3 Zrotation Yrotation Xrotation
		JOINT Spine1
		{
			OFFSET 0.548704 13.518043 0.109247
			CHANNELS 3 Zrotation Yrotation Xrotation
			JOINT Spine2
			{
				OFFSET 0.145701 5.292222 2.542457
				CHANNELS 3 Zrotation Yrotation Xrotation
				JOINT Neck
				{
					OFFSET -0.277840 21.387037 -4.285703
					CHANNELS 3 Zrotation Yrotation Xrotation
					JOINT Head
					{
						OFFSET 0.515184 6.496960 5.134897
						CHANNELS 3 Zrotation Yrotation Xrotation
						End Site
						{
							OFFSET 0.000000 0.000000 0.000000
						}
					}
				}
				JOINT LeftShoulder
				{
					OFFSET 7.884473 12.174932 -3.408961
					CHANNELS 3 Zrotation Yrotation Xrotation
					JOINT LeftArm
					{
						OFFSET 9.097692 3.046888 -0.886815
						CHANNELS 3 Zrotation Yrotation Xrotation
						JOINT LeftForeArm
						{
							OFFSET 25.961220 -1.277207 -2.745643
							CHANNELS 3 Zrotation Yrotation Xrotation
							JOINT LeftHand
							{
								OFFSET 24.923361 0.898606 -0.117091
								CHANNELS 3 Zrotation Yrotation Xrotation
								End Site
								{
									OFFSET 0.000000 0.000000 0.000000
								}
							}
						}
					}
				}
				JOINT RightShoulder
				{
					OFFSET -8.175920 11.883285 -3.861528
					CHANNELS 3 Zrotation Yrotation Xrotation
					JOINT RightArm
					{
						OFFSET -9.601238 3.255117 -0.914307
						CHANNELS 3 Zrotation Yrotation Xrotation
						JOINT RightForeArm
						{
							OFFSET -25.374195 -1.332924 -2.140099
							CHANNELS 3 Zrotation Yrotation Xrotation
							JOINT RightHand
							{
								OFFSET -25.529810 0.777228 -0.555919
								CHANNELS 3 Zrotation Yrotation Xrotation
								End Site
								{
									OFFSET 0.000000 0.000000 0.000000
								}
							}
						}
					}
				}
			}
		}
	}
}
MOTION
Frames: 8
Frame Time: 0.033333
-0.179506 110.047470 2.821913 179.607450 0.111542 -179.700922 6.054952 3.998028 3.779338 -1.034976 -5.967886 4.274769 0.538993 16.434677 -13.549631 1.225400 -0.976836 -0.849293 -3.961767 -5.521879 0.002593 1.170383 0.746147 7.962452 2.715093 -13.424045 -11.738404 1.965976 0.789267 -1.886879 0.000763 1.103778 9.693052 0.311617 -1.551335 -5.036193 0.834153 -0.295885 6.770786 -0.154544 0.265747 0.458692 2.205564 0.102691 -5.899644 -13.784789 -1.159727 -3.123592 -27.605058 -4.644517 6.397495 -6.555315 -27.828774 9.793426 -2.820941 -10.783918 -6.220456 14.222844 3.281913 -1.883184 28.625651 3.015283 7.335162 5.747592 32.264526 9.435078 5.099412 4.949326 -2.007713 
-0.347893 110.017883 2.789179 179.625962 0.173358 -179.619744 6.045506 4.035113 3.802261 -1.207627 -6.022071 4.139831 0.641824 16.519759 -13.681288 1.172570 -0.964624 -0.824647 -4.058625 -5.691332 0.200254 1.139767 0.714134 7.433681 2.742218 -13.251227 -11.610186 1.946528 0.781855 -1.860530 -0.040361 1.202030 9.633530 0.293992 -1.533655 -5.004902 0.831723 -0.230488 6.724443 -0.128704 0.318007 0.272111 2.259006 0.241729 -5.834089 -13.743866 -1.237415 -3.031117 -27.525540 -4.578021 6.625264 -6.960882 -28.247312 10.156798 -3.208385 -10.969994 -6.418693 14.140217 3.411904 -1.699806 28.470592 2.963163 7.510465 6.373350 32.035157 10.101685 5.727008 4.836354 -1.851258 
-0.556338 109.988647 2.827652 179.685059 0.259983 -179.651968 6.005556 3.993543 3.887219 -1.315023 -6.281206 4.040931 0.816015 16.784487 -13.849653 1.138688 -0.939462 -0.827705 -4.143310 -5.772635 0.323416 1.122758 0.728128 7.186850 2.839978 -13.160529 -11.552228 1.920070 0.775086 -1.850672 -0.062562 1.250315 9.681476 0.285463 -1.484230 -5.018401 0.838440 -0.201187 6.706877 -0.072163 0.434712 0.111029 2.246088 0.397378 -5.856638 -13.717675 -1.187325 -3.029700 -27.569734 -4.571843 6.704991 -7.118986 -28.668135 10.296500 -3.362795 -11.038384 -6.512570 14.125581 3.444970 -1.654698 28.417176 2.949888 7.640290 6.689592 31.971494 10.614259 6.120999 4.670781 -1.747205 
-0.734484 109.963577 2.851856 179.737441 0.328589 -179.667374 5.975529 3.949253 3.908975 -1.415944 -6.432533 4.043543 0.982032 16.953440 -14.002900 1.113545 -0.936188 -0.832544 -4.214993 -5.883858 0.420720 1.100141 0.683507 6.969289 2.928372 -13.019663 -11.482081 1.892782 0.780617 -1.849405 -0.099574 1.320064 9.748052 0.293294 -1.439028 -5.038215 0.847174 -0.177352 6.676676 -0.059041 0.520687 0.038624 2.238663 0.475690 -5.948258 -13.716470 -1.137726 -3.078588 -27.648641 -4.570811 6.717033 -7.066996 -28.880481 10.226489 -3.286629 -10.965271 -6.438157 14.136615 3.398688 -1.681459 28.500742 2.912243 7.727887 6.720355 31.915729 10.867728 6.259595 4.460991 -1.490952 
-0.881972 109.944916 2.807855 179.779859 0.352403 -179.638680 5.939102 3.903694 3.860358 -1.486194 -6.551847 4.160292 1.122553 17.060096 -14.140375 1.093421 -0.936798 -0.838197 -4.273960 -5.949317 0.458307 1.087143 0.676331 6.881972 3.024406 -12.944601 -11.453766 1.890274 0.780111 -1.846441 -0.111488 1.369926 9.830150 0.303054 -1.404213 -5.081447 0.873897 -0.188011 6.663805 -0.075050 0.556688 -0.051202 2.225089 0.550268 -5.991811 -13.735437 -1.044486 -3.125770 -27.802928 -4.610737 6.704276 -6.876246 -28.823568 10.099213 -2.915754 -10.813861 -6.344630 14.161363 3.299044 -1.769073 28.698832 2.859908 7.832661 6.561137 31.891218 10.843270 6.055923 4.346596 -1.393108 
-1.046561 109.934402 2.850396 179.793337 0.316734 -179.618015 5.884343 3.868472 3.762427 -1.588377 -6.574729 4.256387 1.260909 17.060574 -14.252267 1.072584 -0.915861 -0.827487 -4.367653 -6.023721 0.486012 1.075720 0.622888 6.721972 3.097104 -12.910301 -11.334322 1.864592 0.776210 -1.848151 -0.102725 1.410988 9.938276 0.321419 -1.383088 -5.152881 0.866347 -0.185380 6.635081 -0.101175 0.498978 -0.102141 2.210422 0.559627 -6.071801 -13.700399 -0.974415 -3.149445 -27.914285 -4.634555 6.714725 -6.849823 -28.791111 10.118223 -2.579843 -10.750260 -6.340854 14.122776 3.217397 -1.793348 28.893209 2.828952 7.890218 6.548338 31.883753 10.899570 5.851332 4.246409 -1.355571 
-1.189028 109.934235 2.831150 179.810506 0.339788 -179.522478 5.828003 3.863016 3.673450 -1.656952 -6.500552 4.272114 1.331845 17.048544 -14.314695 1.048769 -0.902343 -0.812854 -4.458273 -6.068864 0.514077 1.093357 0.628602 6.467931 3.166091 -12.873546 -11.140809 1.846001 0.778578 -1.836632 -0.082394 1.442332 9.962926 0.321950 -1.375857 -5.221987 0.879240 -0.172659 6.630831 -0.118731 0.541898 -0.216966 2.228105 0.649654 -6.164404 -13.709502 -0.868536 -3.133989 -28.061170 -4.569495 6.672253 -6.664109 -28.690464 9.971668 -2.170574 -10.755057 -6.329302 14.146970 3.105558 -1.780348 29.140638 2.799715 7.939104 6.360865 31.950699 10.766128 5.551427 4.255519 -1.389710 
-1.359968 109.939957 2.769129 179.869773 0.404135 -179.411234 5.804200 3.902923 3.609293 -1.729137 -6.319858 4.283323 1.379788 16.967792 -14.400189 1.030814 -0.896799 -0.796613 -4.526585 -6.152981 0.430631 1.105152 0.562661 6.415301 3.238639 -12.736777 -10.924552 1.834974 0.784995 -1.819801 -0.054766 1.475726 9.988980 0.328236 -1.362111 -5.352493 0.897010 -0.154644 6.635896 -0.144812 0.570693 -0.204141 2.199182 0.652246 -6.232820 -13.683479 -0.736443 -3.126280 -28.191380 -4.481618 6.637904 -6.575310 -28.554851 9.850062 -1.969218 -10.662459 -6.402369 14.147505 3.001347 -1.778762 29.355497 2.809294 7.919642 6.257831 31.976732 10.573696 5.338271 4.177230 -1.520527 
